<svg id="Layer_1" data-name="Layer 1" xmlns="http://www.w3.org/2000/svg" viewBox="0 0 1232.4 1232.3"><defs><style>.cls-1{fill:#fff;}.cls-2{fill:#2b95b5;}.cls-3{fill:#f27896;}.cls-4{fill:#c8e09b;}.cls-5{fill:#6fbc90;}.cls-6{fill:#7acbf2;}.cls-7{fill:#994299;}.cls-8{fill:#d46c80;}.cls-9{fill:#88ceb9;}.cls-10{fill:#faaf75;}</style></defs><title>K_Icon</title><path class="cls-1" d="M1558.52,1532H678.12c-96.8,0-176-79.2-176-176V475.71c0-96.8,79.2-176,176-176h880.4c96.8,0,176,79.2,176,176v880.4C1734.52,1452.81,1655.32,1532,1558.52,1532Z" transform="translate(-502.12 -299.71)"/><g id="_Group_" data-name="&lt;Group&gt;"><polygon class="cls-2" points="210.85 863 492.75 810.5 492.15 412.6 210.85 863"/></g><g id="_Group_2" data-name="&lt;Group&gt;"><polygon class="cls-3" points="210.15 394.5 492.15 412.6 492.55 411.8 493.15 410.5 615.55 159.6 210.15 394.5"/></g><g id="_Group_3" data-name="&lt;Group&gt;"><polygon class="cls-4" points="492.75 810.5 1022.25 861.7 837.05 611 492.75 810.5"/></g><g id="_Group_4" data-name="&lt;Group&gt;"><polygon class="cls-5" points="492.75 810.5 616.95 1096.6 1022.25 861.7 492.75 810.5"/></g><g id="_Group_5" data-name="&lt;Group&gt;"><polygon class="cls-6" points="210.85 863 616.95 1096.6 492.75 810.5 210.85 863"/></g><g id="_Group_6" data-name="&lt;Group&gt;"><polygon class="cls-7" points="492.15 412.6 837.05 611 615.55 159.6 492.15 412.6"/></g><g id="_Group_7" data-name="&lt;Group&gt;"><polygon class="cls-8" points="615.55 159.6 837.05 611 1021.55 393.3 615.55 159.6"/></g><g id="_Group_8" data-name="&lt;Group&gt;"><polygon class="cls-9" points="210.15 394.5 210.85 863 492.15 412.6 210.15 394.5"/></g><g id="_Group_9" data-name="&lt;Group&gt;"><polygon class="cls-10" points="837.05 611 1022.25 861.7 1021.55 393.3 837.05 611"/></g></svg>